<svg width="24" height="24" viewBox="0 0 24 24" fill="none" xmlns="http://www.w3.org/2000/svg">
<path d="M17.9722 7.97723C16.9686 7.97723 15.9959 8.26261 15.1581 8.80286L14.7361 9.07529L14.5343 8.61526C13.7713 6.87542 12.0441 5.75146 10.1333 5.75146C7.76048 5.75146 5.71856 7.50718 5.38388 9.83573L5.33081 10.2026H4.90714C2.67302 10.2026 0.855469 12.0072 0.855469 14.2254C0.855469 16.4437 2.67302 18.2483 4.90714 18.2483H18.0603C20.8606 18.2048 23.144 15.9009 23.144 13.1128C23.144 10.2811 20.8239 7.97723 17.9722 7.97723ZM21.4126 13.5419C21.1761 13.5419 20.9847 13.3505 20.9847 13.114C20.9847 11.4627 19.641 10.119 17.9897 10.119C17.7532 10.119 17.5619 9.92764 17.5619 9.69115C17.5619 9.45467 17.7532 9.2633 17.9897 9.2633C20.1131 9.2633 21.8404 10.9906 21.8404 13.114C21.8404 13.3505 21.6491 13.5419 21.4126 13.5419Z" fill="#5CB0FF"/>
<path d="M17.9724 7.12176C16.965 7.12176 15.984 7.36912 15.107 7.84085C14.1251 6.0375 12.2219 4.896 10.1336 4.896C7.46072 4.896 5.14387 6.78959 4.60028 9.35672C2.03691 9.51466 0 11.6381 0 14.2257C0 16.9156 2.20153 19.1042 4.90738 19.1042L18.0673 19.1034C21.3384 19.0537 24 16.3662 24 13.113C24 9.80923 21.2962 7.12176 17.9724 7.12176ZM18.0606 18.2485H4.90738C2.67326 18.2485 0.85571 16.4439 0.85571 14.2257C0.85571 12.0074 2.67326 10.2028 4.90738 10.2028H5.33105L5.38412 9.83597C5.7188 7.50742 7.76073 5.75171 10.1336 5.75171C12.0443 5.75171 13.7716 6.87566 14.5345 8.61549L14.7363 9.07552L15.1584 8.80309C15.9961 8.26284 16.9688 7.97746 17.9724 7.97746C20.8241 7.97746 23.1443 10.2814 23.1443 13.113C23.1443 15.9011 20.8609 18.2051 18.0606 18.2485Z" fill="#1C71DA"/>
<path d="M17.9904 9.26367C17.7539 9.26367 17.5625 9.45504 17.5625 9.69153C17.5625 9.92801 17.7539 10.1194 17.9904 10.1194C19.6416 10.1194 20.9853 11.4631 20.9853 13.1144C20.9853 13.3509 21.1767 13.5422 21.4132 13.5422C21.6497 13.5422 21.8411 13.3509 21.8411 13.1144C21.8411 10.991 20.1138 9.26367 17.9904 9.26367Z" fill="white"/>
</svg>
