<svg width="66" height="65" viewBox="0 0 66 65" fill="none" xmlns="http://www.w3.org/2000/svg">
<g clip-path="url(#clip0_1746_1087)">
<path d="M59.955 12.6257C59.9542 12.6083 59.9521 12.5912 59.9501 12.5742C59.9493 12.5685 59.9492 12.5626 59.9483 12.557C59.9453 12.5366 59.9412 12.5166 59.9365 12.4969C59.9359 12.4945 59.9356 12.492 59.935 12.4896C59.9299 12.4693 59.9238 12.4494 59.917 12.4298C59.9163 12.4278 59.9158 12.4257 59.9151 12.4237C59.9084 12.405 59.9007 12.3869 59.8926 12.3689C59.8912 12.366 59.8902 12.3629 59.8888 12.3599C59.8809 12.3432 59.872 12.3271 59.863 12.3111C59.8606 12.3071 59.8587 12.3028 59.8564 12.2989C59.8474 12.2839 59.8375 12.2696 59.8275 12.2554C59.8242 12.2507 59.8214 12.2459 59.8179 12.2413C59.8054 12.2243 59.7919 12.2081 59.778 12.1923L59.7743 12.1878L50.4966 1.92084C50.4949 1.91906 50.4931 1.91756 50.4914 1.91577C50.4775 1.90066 50.4631 1.88598 50.4479 1.87211C50.4429 1.86762 50.4376 1.86377 50.4326 1.85946C50.4201 1.84875 50.4077 1.83803 50.3946 1.82822C50.3899 1.82478 50.385 1.82189 50.3803 1.81854C50.3661 1.80849 50.3519 1.79853 50.337 1.78957C50.3337 1.78761 50.3302 1.78592 50.3268 1.78405C50.3103 1.77444 50.2934 1.76509 50.276 1.75675C50.2738 1.7557 50.2715 1.75492 50.2691 1.75385C50.2505 1.74526 50.2317 1.73713 50.2122 1.7301C50.2097 1.72921 50.2072 1.72861 50.2047 1.72773C50.1856 1.72109 50.1662 1.7149 50.1464 1.70982C50.1405 1.70829 50.1344 1.7075 50.1284 1.70615C50.1119 1.70238 50.0954 1.6986 50.0784 1.69602C50.0552 1.69245 50.0317 1.69 50.0081 1.68877L26.6606 0.469576C24.6102 0.362504 22.8545 1.93761 22.7471 3.98068L20.6157 44.5043C20.5082 46.5474 22.089 48.2967 24.1394 48.4038L54.2652 49.9769C56.3156 50.084 58.0712 48.5089 58.1787 46.4658L59.9549 12.6961C59.9561 12.6726 59.9561 12.6491 59.955 12.6257ZM50.5878 4.1276L57.5813 11.8667L52.5075 11.6018C51.2357 11.5354 50.2552 10.4504 50.3219 9.18312L50.5878 4.1276ZM54.3392 48.5699L24.2134 46.9967C22.9416 46.9303 21.9611 45.8454 22.0278 44.5781L24.1592 4.05442C24.2259 2.78712 25.3148 1.81024 26.5866 1.87665L49.228 3.05897L48.9097 9.10937C48.8023 11.1524 50.3831 12.9018 52.4335 13.0088L58.5057 13.3259L56.7666 46.3921C56.6999 47.6594 55.611 48.6363 54.3392 48.5699Z" fill="#C5D8F1"/>
<path d="M54.3392 48.5699L24.2134 46.9967C22.9416 46.9303 21.9611 45.8454 22.0278 44.5781L24.1592 4.05442C24.2259 2.78712 25.3148 1.81024 26.5866 1.87665L49.228 3.05897L48.9097 9.10937C48.8023 11.1524 50.3831 12.9018 52.4335 13.0088L58.5057 13.3259L56.7666 46.3921C56.6999 47.6594 55.611 48.6363 54.3392 48.5699Z" fill="white"/>
<path d="M50.5878 4.1276L57.5813 11.8667L52.5075 11.6018C51.2357 11.5354 50.2552 10.4504 50.3219 9.18312L50.5878 4.1276Z" fill="white"/>
</g>
<g clip-path="url(#clip1_1746_1087)">
<path d="M18.3997 9.87482L4.02024 10.6257C2.3598 10.7124 1.0841 12.1241 1.17112 13.7786L1.68324 23.5152L49.7903 21.0031L49.5145 15.7603C49.4275 14.1058 48.0107 12.8347 46.3503 12.9214L25.2057 14.0256C24.3142 14.0714 23.4478 13.7201 22.8414 13.0676L20.7641 10.8328C20.1577 10.1803 19.2913 9.82901 18.3997 9.87482Z" fill="#68A4FD"/>
<path d="M4.53239 20.3625L46.6261 18.1644C48.2865 18.0777 49.7033 19.3488 49.7903 21.0033L51.0115 44.2214C51.0985 45.8759 49.8229 47.2876 48.1624 47.3743L6.06873 49.5724C4.40829 49.6591 2.99149 48.388 2.90447 46.7336L1.68327 23.5154C1.59625 21.8609 2.87194 20.4492 4.53239 20.3625Z" fill="#3772FF"/>
<path d="M48.3658 22.5797L49.5082 44.2999C49.5517 45.1275 48.9142 45.833 48.0836 45.8764L7.49327 47.996C6.66267 48.0394 6.02518 48.7448 6.06871 49.5724L48.1624 47.3743C49.8228 47.2876 51.0985 45.8759 51.0115 44.2214L49.7903 21.0033C48.9597 21.0467 48.3222 21.7521 48.3658 22.5797Z" fill="#1E5DF5"/>
<path d="M45.835 17.4547C45.7915 16.6271 45.0835 15.9919 44.2529 16.0353L7.42089 17.9586C6.59029 18.002 5.9528 18.7074 5.99633 19.5351L6.03572 20.284L45.8744 18.2037L45.835 17.4547Z" fill="white"/>
</g>
<g clip-path="url(#clip2_1746_1087)">
<path d="M25.4361 21.5H11.0369C9.37416 21.5 8.02606 22.8432 8.02606 24.5V34.25H56.1991V29C56.1991 27.3432 54.851 26 53.1883 26H32.0147C31.122 25.9992 30.2752 25.6033 29.7039 24.92L27.7469 22.58C27.1756 21.8968 26.3288 21.5008 25.4361 21.5Z" fill="#68A4FD"/>
<path d="M11.0369 31.25H53.1883C54.851 31.25 56.1991 32.5932 56.1991 34.25V57.5C56.1991 59.1568 54.851 60.5 53.1883 60.5H11.0369C9.37416 60.5 8.02606 59.1568 8.02606 57.5V34.25C8.02606 32.5932 9.37416 31.25 11.0369 31.25Z" fill="#3772FF"/>
<path d="M54.6937 35.75V57.5C54.6937 58.3288 54.02 59 53.1883 59H12.5423C11.7105 59 11.0369 59.6712 11.0369 60.5H53.1883C54.851 60.5 56.1991 59.1568 56.1991 57.5V34.25C55.3674 34.25 54.6937 34.9212 54.6937 35.75Z" fill="#1E5DF5"/>
<path d="M52.4356 30.5C52.4356 29.6712 51.762 29 50.9302 29H14.0477C13.216 29 12.5423 29.6712 12.5423 30.5V31.25H52.4356V30.5Z" fill="white"/>
</g>
<defs>
<clipPath id="clip0_1746_1087">
<rect width="48.1726" height="48.0005" fill="white" transform="matrix(0.998639 0.0521484 -0.0525241 0.99862 17.6702 0)"/>
</clipPath>
<clipPath id="clip1_1746_1087">
<rect width="48.1726" height="48.0005" fill="white" transform="matrix(0.998639 -0.0521484 0.0525241 0.99862 0.777222 6.28906)"/>
</clipPath>
<clipPath id="clip2_1746_1087">
<rect width="48.1731" height="48" fill="white" transform="translate(8.02606 17)"/>
</clipPath>
</defs>
</svg>
