<svg width="48" height="48" viewBox="0 0 48 48" fill="none" xmlns="http://www.w3.org/2000/svg">
<path d="M42.7361 10.4032C42.7344 10.3858 42.7314 10.3689 42.7285 10.352C42.7275 10.3464 42.727 10.3406 42.7259 10.3349C42.7219 10.3147 42.7167 10.295 42.711 10.2756C42.7103 10.2732 42.7098 10.2707 42.7091 10.2683C42.703 10.2483 42.6958 10.2288 42.688 10.2096C42.6873 10.2077 42.6866 10.2056 42.6859 10.2036C42.6783 10.1853 42.6696 10.1675 42.6606 10.1501C42.6591 10.1472 42.6579 10.1442 42.6564 10.1412C42.6476 10.125 42.638 10.1094 42.6281 10.0939C42.6256 10.09 42.6234 10.0858 42.6209 10.082C42.6112 10.0675 42.6006 10.0538 42.5899 10.0401C42.5864 10.0356 42.5833 10.0309 42.5796 10.0265C42.5663 10.0102 42.552 9.99471 42.5374 9.97968C42.536 9.97827 42.5348 9.97677 42.5334 9.97536L32.7643 0.206278C32.7627 0.204587 32.7608 0.203178 32.759 0.201487C32.7443 0.187115 32.7292 0.173213 32.7133 0.160157C32.7082 0.15593 32.7027 0.15236 32.6975 0.148321C32.6845 0.13827 32.6716 0.128219 32.658 0.119108C32.6532 0.115914 32.6481 0.113284 32.6434 0.110184C32.6287 0.100885 32.6141 0.0916791 32.5987 0.0835068C32.5954 0.0817221 32.5918 0.0802192 32.5883 0.0785284C32.5713 0.0697926 32.554 0.0613386 32.5363 0.0539178C32.534 0.0529785 32.5317 0.0523209 32.5293 0.0513816C32.5103 0.043773 32.4912 0.0366341 32.4715 0.0306223C32.4689 0.0298708 32.4664 0.0294012 32.4639 0.0286497C32.4445 0.0230137 32.4249 0.0178474 32.4049 0.0138082C32.3989 0.0125871 32.3928 0.0121174 32.3868 0.0110841C32.3702 0.00817221 32.3536 0.00526027 32.3365 0.00356947C32.3132 0.00122113 32.2897 0 32.2661 0H8.97063C6.92475 0 5.26025 1.6645 5.26025 3.71037V44.2896C5.26025 46.3355 6.92475 48 8.97063 48H39.0293C41.0752 48 42.7397 46.3355 42.7397 44.2896V10.4736C42.7397 10.45 42.7385 10.4265 42.7361 10.4032ZM32.9706 2.40526L40.3344 9.76908H35.272C34.003 9.76908 32.9706 8.73675 32.9706 7.46771V2.40526ZM39.0293 46.591H8.97063C7.70168 46.591 6.66926 45.5587 6.66926 44.2896V3.71037C6.66926 2.44133 7.70168 1.409 8.97063 1.409H31.5616V7.46771C31.5616 9.51358 33.2261 11.1781 35.272 11.1781H41.3307V44.2896C41.3307 45.5587 40.2983 46.591 39.0293 46.591Z" fill="#C5D8F1"/>
</svg>
