<svg width="48" height="48" viewBox="0 0 48 48" fill="none" xmlns="http://www.w3.org/2000/svg">
<path d="M17.3475 4.5H3C1.34325 4.5 0 5.84325 0 7.5V17.25H48V12C48 10.3432 46.6568 9 45 9H23.9025C23.013 8.99925 22.1692 8.60325 21.6 7.92L19.65 5.58C19.0808 4.89675 18.237 4.50075 17.3475 4.5Z" fill="url(#paint0_linear_1730_1034)"/>
<path d="M3 14.25H45C46.6568 14.25 48 15.5932 48 17.25V40.5C48 42.1568 46.6568 43.5 45 43.5H3C1.34325 43.5 0 42.1568 0 40.5V17.25C0 15.5932 1.34325 14.25 3 14.25Z" fill="#3772FF"/>
<path d="M46.5 18.75V40.5C46.5 41.3288 45.8288 42 45 42H4.5C3.67125 42 3 42.6712 3 43.5H45C46.6568 43.5 48 42.1568 48 40.5V17.25C47.1712 17.25 46.5 17.9212 46.5 18.75Z" fill="#1E5DF5"/>
<path d="M44.25 13.5C44.25 12.6712 43.5788 12 42.75 12H6C5.17125 12 4.5 12.6712 4.5 13.5V14.25H44.25V13.5Z" fill="white"/>
<defs>
<linearGradient id="paint0_linear_1730_1034" x1="24" y1="4.5" x2="24" y2="17.25" gradientUnits="userSpaceOnUse">
<stop stop-color="#3772FF"/>
<stop offset="1" stop-color="#0342D8" stop-opacity="0"/>
</linearGradient>
</defs>
</svg>
