<svg width="48" height="48" viewBox="0 0 48 48" fill="none" xmlns="http://www.w3.org/2000/svg">
<g clip-path="url(#clip0_1733_1074)">
<path d="M30.909 19.2256C29.8876 14.0439 25.3367 10.1538 19.8696 10.1538C15.5289 10.1538 11.759 12.617 9.88159 16.2217C5.36071 16.7023 1.84613 20.5323 1.84613 25.1734C1.84613 30.1448 5.88639 34.1851 10.8579 34.1851H30.3833C34.5287 34.1851 37.8931 30.8207 37.8931 26.6753C37.8931 22.7102 34.8141 19.496 30.909 19.2256Z" fill="#3772FF"/>
<g filter="url(#filter0_bd_1733_1074)">
<path d="M40.3338 25.2234C39.4827 20.9053 35.6902 17.6636 31.1343 17.6636C27.5171 17.6636 24.3755 19.7162 22.811 22.7202C19.0436 23.1207 16.1147 26.3123 16.1147 30.1799C16.1147 34.3228 19.4816 37.6896 23.6245 37.6896H39.8957C43.3502 37.6896 46.1539 34.886 46.1539 31.4315C46.1539 28.1272 43.588 25.4487 40.3338 25.2234Z" fill="white" fill-opacity="0.8" shape-rendering="crispEdges"/>
</g>
</g>
<defs>
<filter id="filter0_bd_1733_1074" x="12.1147" y="13.6636" width="38.0391" height="28.0259" filterUnits="userSpaceOnUse" color-interpolation-filters="sRGB">
<feFlood flood-opacity="0" result="BackgroundImageFix"/>
<feGaussianBlur in="BackgroundImageFix" stdDeviation="2"/>
<feComposite in2="SourceAlpha" operator="in" result="effect1_backgroundBlur_1733_1074"/>
<feColorMatrix in="SourceAlpha" type="matrix" values="0 0 0 0 0 0 0 0 0 0 0 0 0 0 0 0 0 0 127 0" result="hardAlpha"/>
<feOffset/>
<feGaussianBlur stdDeviation="2"/>
<feComposite in2="hardAlpha" operator="out"/>
<feColorMatrix type="matrix" values="0 0 0 0 0.6 0 0 0 0 0.6 0 0 0 0 0.6 0 0 0 0.25 0"/>
<feBlend mode="normal" in2="effect1_backgroundBlur_1733_1074" result="effect2_dropShadow_1733_1074"/>
<feBlend mode="normal" in="SourceGraphic" in2="effect2_dropShadow_1733_1074" result="shape"/>
</filter>
<clipPath id="clip0_1733_1074">
<rect width="48" height="48" fill="white"/>
</clipPath>
</defs>
</svg>
