<svg width="24" height="24" viewBox="0 0 24 24" fill="#000" xmlns="http://www.w3.org/2000/svg">
<path d="M14.7 14.25H22.95L16.425 1.875C16.275 1.65 16.05 1.5 15.75 1.5H9.14999C8.84999 1.5 8.62499 1.65 8.47499 1.875C8.32499 2.1 8.32499 2.4 8.47499 2.625L14.7 14.25Z" fill="#2262C6"/>
<path d="M7.27502 3.82495L0.150021 15.15C2.09063e-05 15.375 2.09063e-05 15.6 0.0750209 15.825L2.92502 22.05C3.00002 22.275 3.22502 22.5 3.52502 22.5C3.52502 22.5 3.52502 22.5 3.60002 22.5C3.82502 22.5 4.12502 22.35 4.20002 22.125L11.175 11.1L7.27502 3.82495Z" fill="#2262C6"/>
<path d="M2.84998 21.75C2.84998 21.9 2.84998 21.975 2.92498 22.125C2.99998 22.2 2.99998 22.275 3.07498 22.35L2.84998 21.75Z" fill="black"/>
<path d="M23.925 16.125C23.775 15.9 23.55 15.75 23.25 15.75H9.97495L5.69995 22.5H20.475C20.775 22.5 21 22.35 21.15 22.125L24 16.875C24 16.65 24 16.35 23.925 16.125Z" fill="#2262C6"/>
</svg>
